# xmcd
#
# Track frame offsets: 
#        150
#        80450
#        134455
#        222517
#
# Disc length: 4461 seconds
#
# Revision: 7
# Processed by: cddbd v1.5.2PL0 Copyright (c) Steve Scherf et al.
# Submitted via: ExactAudioCopy v0.95b4
#
DISCID=36116b04
DTITLE=Wilhelm Furtwangler and Bayreuth Festival Orchestra - Beethoven :
DTITLE=Symphony No.9 (51.7.29) (Toshiba EMI)
DYEAR=1951
DGENRE=Classical
TTITLE0=Symphony No.9 in D minor, op.125 "Choral" - I. Allegro ma non 
TTITLE0=troppo, un poco maestoso
TTITLE1=Symphony No.9 in D minor, op.125 "Choral" - II. Molto vivace -
TTITLE1=Presto
TTITLE2=Symphony No.9 in D minor, op.125 "Choral" - III. Adagio molto 
TTITLE2=e cantabile - Andante moderato - Adagio
TTITLE3=Symphony No.9 in D minor, op.125 "Choral" - IV. Presto -
EXTD=
EXTT0=
EXTT1=
EXTT2=
EXTT3=
PLAYORDER=
